<svg viewBox="0 0 75 72" fill="none" xmlns="http://www.w3.org/2000/svg"><path d="M29.62 64.94h16.06V41.17H29.62v23.77zm13.15-2.89H32.53v-18h10.14v18h.1z" fill="#81B3D2"/><path d="M72.9 39.18L75 37.1l-9.94-9.84V.4H51.2v13.12L37.45 0 0 37.2l2.1 2.08 7.84-7.76v37.6H6.02V72h64.16v-2.88h-5.12v-37.7l7.83 7.76zM54.11 3.38h7.93v20.98l-7.93-7.85V3.38zm8.03 65.64h-49.2V28.54l24.5-24.36 24.6 24.36v40.48h.1z" fill="#81B3D2"/><path d="M29.92 27.05a7.78 7.78 0 0015.56 0 7.72 7.72 0 00-7.83-7.66 7.63 7.63 0 00-7.73 7.66zm7.73-4.97a5.01 5.01 0 015.02 4.97 5.01 5.01 0 01-10.04 0c0-2.69 2.31-4.97 5.02-4.97zM19.98 41.17h-3.01v3.88h3.01v-3.88zm5.92 0h-3v3.88h3v-3.88zm-5.92 5.97h-3.01v3.88h3.01v-3.88zm5.92 0h-3v3.88h3v-3.88zM52 41.17h-3v3.88h3v-3.88zm6.03 0h-3.01v3.88h3.01v-3.88zM52 47.14h-3v3.88h3v-3.88zm6.03 0h-3.01v3.88h3.01v-3.88z" fill="#81B3D2"/></svg>